<svg id="Layer_1" data-name="Layer 1" xmlns="http://www.w3.org/2000/svg" viewBox="0 0 311.86 141.58"><defs><style>.cls-1{fill:#00594e;}</style></defs><path class="cls-1" d="M377.63,274.49h-80s13.28,13,14.27,13.77a1.69,1.69,0,0,1,.73,2.22c-4.67,10.81-26.06,33.93-26.06,33.93l-9.35-15.25L291,293.67H269.42V261.31a9.88,9.88,0,1,0-8,.23v32.13h-22l13.77,15.49-9.35,15.25s-21.39-23.12-26.06-33.93a1.69,1.69,0,0,1,.73-2.22c1-.73,14.27-13.77,14.27-13.77H193.39s-.74,16.48,4.43,27.05S203,313.84,215,326.87,251.67,365,251.67,365l13.77-43,13.28,43s24.59-25.08,36.64-38.11,12.05-14.76,17.21-25.33c.24-.48.46-1,.67-1.49a3.27,3.27,0,0,1,.35.48l10.07,10.75,7.27-21.41h11.16c9.11,0,16.85,5.3,16.85,10.73,0,8.4-12.07,14.73-23.68,14.73h-7.81l50.72,54.15-13.41-44.71c9.46-4.14,21.53-11.5,21.53-27.27C406.29,287.93,399.16,274.49,377.63,274.49Zm-112.46-27a4.89,4.89,0,1,1-4.89,4.88A4.89,4.89,0,0,1,265.17,247.52Z" transform="translate(-144.07 -227.96)"/><path class="cls-1" d="M279.53,253.14A14.76,14.76,0,0,1,274,264a2.5,2.5,0,0,0-.41,3.51,2.5,2.5,0,0,0,3.51.41,19.94,19.94,0,0,0,1.47-29.77,2.5,2.5,0,1,0-3.47,3.6A14.77,14.77,0,0,1,279.53,253.14Z" transform="translate(-144.07 -227.96)"/><path class="cls-1" d="M279.35,233.14a24.1,24.1,0,0,1-1.26,39.44,2.5,2.5,0,0,0,1.37,4.59,2.46,2.46,0,0,0,1.37-.41,29.11,29.11,0,0,0,1.53-47.62,2.5,2.5,0,0,0-3,4Z" transform="translate(-144.07 -227.96)"/><path class="cls-1" d="M245.87,251.74A19.8,19.8,0,0,0,251.82,267a2.5,2.5,0,1,0,3.47-3.6,14.93,14.93,0,0,1,1.1-22.25,2.5,2.5,0,0,0-3.1-3.93A19.73,19.73,0,0,0,245.87,251.74Z" transform="translate(-144.07 -227.96)"/><path class="cls-1" d="M248,276a2.5,2.5,0,1,0,3-4,24.12,24.12,0,0,1,1.26-39.45,2.5,2.5,0,0,0-2.74-4.18A29.12,29.12,0,0,0,248,276Z" transform="translate(-144.07 -227.96)"/><path class="cls-1" d="M152.54,286.71v14.85c0,7.7-1.54,11.44-8.47,14.08v4.62c6.82,2.64,8.36,6.38,8.36,14.08v14.85c0,14.52,7.7,20.35,19,20.35v-5.83c-5-.77-9.13-5.28-9.13-12.1V336.1c0-8.47-1.32-13.2-8.8-18.15,7.59-4.95,8.91-9.68,8.91-18.15V284.29c0-6.82,4.18-11.33,9.13-12.1v-5.83C160.24,266.36,152.54,272.19,152.54,286.71Z" transform="translate(-144.07 -227.96)"/><path class="cls-1" d="M447.46,301.56V286.71c0-14.52-7.7-20.35-19-20.35v5.83c4.95.77,9.13,5.28,9.13,12.1V299.8c0,8.47,1.32,13.2,8.8,18.15-7.37,4.95-8.69,9.68-8.69,18.15v15.51c0,6.82-4.18,11.33-9.13,12.1v5.83c11.33,0,19-5.83,19-20.35V334.34c0-7.7,1.54-11.44,8.36-14.08v-4.62C449,313,447.46,309.26,447.46,301.56Z" transform="translate(-144.07 -227.96)"/></svg>